#!OML:ASF C:\ViconDB\ViconDB\414\Spring2016\041811\Spring2016.ASF
:FULLY-SPECIFIED
:DEGREES
295
root 8.35191 17.5902 -9.77649 383.24 -39.0589 349.696
lowerback 6.11987 3.83418 -8.10767
upperback -0.953435 4.41824 -1.0883
thorax -4.96806 2.38409 2.9188
lowerneck -10.3019 -10.1529 -23.0249
upperneck 8.63299 -14.6941 29.8203
head 8.77122 -6.4165 12.6929
rclavicle -2.74323e-014 -1.59028e-015
rhumerus -10.4439 -29.2235 -11.0676
rradius 25.9378
rwrist 41.8871
rhand -27.3752 -12.5123
rfingers 7.12502
rthumb -0.782471 -42.4906
lclavicle -2.74323e-014 -1.59028e-015
lhumerus -23.3588 -15.1022 -2.28903
lradius 24.1026
lwrist 1.37633
lhand -29.7334 26.8646
lfingers 7.12502
lthumb -3.05996 56.8223
rfemur -34.7221 -195.912 0.351405
rtibia 10.6401
rfoot -11.02 -53.7331
rtoes -44.5485
lfemur -53.6382 -2.54809 -11.6442
ltibia 58.3999
lfoot -19.9084 -0.206262
ltoes -8.43658
296
root 8.37763 17.58 -9.75147 383.589 -39.9832 349.222
lowerback 5.87193 3.61797 -7.94555
upperback -1.06779 4.16138 -1.11824
thorax -4.90352 2.25443 2.84088
lowerneck -10.0316 -10.1069 -23.0221
upperneck 8.52713 -14.7247 30.0882
head 8.72834 -6.45142 12.8087
rclavicle -6.36111e-014 1.74931e-014
rhumerus -11.2683 -28.0108 -11.5328
rradius 26.2554
rwrist 40.9395
rhand -27.0558 -12.4313
rfingers 7.12502
rthumb -0.474025 -42.4105
lclavicle -6.36111e-014 1.74931e-014
lhumerus -22.6944 -15.0505 -1.44016
lradius 24.2275
lwrist 0.980978
lhand -29.5401 26.1061
lfingers 7.12502
lthumb -2.87336 56.0665
rfemur -36.3065 -195.421 0.943302
rtibia 11.9114
rfoot -11.7183 -56.4101
rtoes -45.4494
lfemur -53.5462 -2.59909 -11.5053
ltibia 58.7634
lfoot -20.628 1.1702
ltoes -8.60119
297
root 8.40765 17.5803 -9.73486 383.648 -40.9398 349.045
lowerback 5.78586 3.42677 -7.97838
upperback -1.13956 3.90183 -1.25313
thorax -4.89388 2.12623 2.75173
lowerneck -9.99611 -10.1633 -22.8039
upperneck 8.56767 -14.9115 30.2563
head 8.79501 -6.53467 12.8074
rclavicle -5.40694e-014 3.49861e-014
rhumerus -12.0294 -27.466 -11.9763
rradius 26.3719
rwrist 40.8373
rhand -26.8426 -12.4269
rfingers 7.12502
rthumb -0.268108 -42.4064
lclavicle -5.40694e-014 3.49861e-014
lhumerus -22.0884 -15.4731 -0.471265
lradius 24.5807
lwrist 1.13903
lhand -29.5853 25.8554
lfingers 7.12502
lthumb -2.91701 55.8152
rfemur -38.0001 -195.417 1.15806
rtibia 13.3111
rfoot -13.7951 -59.1742
rtoes -46.2161
lfemur -53.3 -2.73357 -11.5779
ltibia 58.961
lfoot -21.178 2.4133
ltoes -8.70596
298
root 8.4508 17.5333 -9.7467 383.495 -42.1068 349.125
lowerback 5.78069 3.21977 -8.45699
upperback -1.23182 3.58662 -1.21672
thorax -4.98851 1.98984 3.08784
lowerneck -9.98465 -10.1585 -22.9678
upperneck 8.74814 -14.9421 30.2932
head 8.87838 -6.55585 12.8647
rclavicle -4.65156e-014 2.06736e-014
rhumerus -12.5213 -26.7403 -12.1972
rradius 26.5132
rwrist 40.5906
rhand -26.5522 -12.4248
rfingers 7.12502
rthumb 0.0124108 -42.4045
lclavicle -4.65156e-014 2.06736e-014
lhumerus -21.8881 -15.5168 0.820081
lradius 24.6635
lwrist 0.861853
lhand -29.3915 24.9848
lfingers 7.12502
lthumb -2.72978 54.9471
rfemur -39.7192 -195.776 0.875441
rtibia 14.6782
rfoot -17.9824 -61.8896
rtoes -46.6607
lfemur -53.3019 -2.90153 -11.8529
ltibia 59.2864
lfoot -21.4484 3.74672
ltoes -8.95517
299
root 8.4927 17.5464 -9.74552 383.576 -43.2003 348.765
lowerback 5.91764 3.02297 -8.53098
upperback -1.3104 3.30261 -1.16613
thorax -5.123 1.85939 3.20568
lowerneck -9.94469 -10.1549 -22.979
upperneck 8.87874 -14.9983 30.343
head 8.93681 -6.58714 12.8892
rclavicle -1.308e-013 -2.22639e-014
rhumerus -13.2246 -26.3553 -12.4366
rradius 26.6686
rwrist 40.6444
rhand -26.5375 -12.2855
rfingers 7.12502
rthumb 0.0266324 -42.2653
lclavicle -1.308e-013 -2.22639e-014
lhumerus -21.7243 -15.7301 2.05513
lradius 24.8503
lwrist 0.815352
lhand -29.1206 24.3884
lfingers 7.12502
lthumb -2.46817 54.3539
rfemur -41.1233 -196.47 0.931589
rtibia 15.7474
rfoot -22.3466 -64.6868
rtoes -46.4618
lfemur -52.9705 -2.87356 -11.7894
ltibia 59.3579
lfoot -21.6356 4.82422
ltoes -9.07937
300
root 8.54142 17.5594 -9.74765 383.436 -44.4816 348.666
lowerback 6.10032 2.89533 -8.82701
upperback -1.41268 3.0793 -1.22231
thorax -5.32284 1.76609 3.32556
lowerneck -9.8843 -10.1675 -22.8729
upperneck 9.14422 -15.1287 30.3565
head 9.04247 -6.64941 12.8689
rclavicle 4.6118e-014 -5.24792e-014
rhumerus -13.932 -26.7785 -12.51
rradius 26.6035
rwrist 41.5605
rhand -26.5923 -12.0376
rfingers 7.12502
rthumb -0.0263093 -42.0173
lclavicle 4.6118e-014 -5.24792e-014
lhumerus -21.4362 -15.7151 3.21292
lradius 24.7341
lwrist 0.105678
lhand -29.005 23.5423
lfingers 7.12502
lthumb -2.35652 53.509
rfemur -42.2272 -197.225 0.668537
rtibia 16.4806
rfoot -28.6095 -66.9299
rtoes -47.1864
lfemur -52.5658 -2.76352 -12.0336
ltibia 59.418
lfoot -21.79 5.90795
ltoes -9.1807
301
root 8.59053 17.5763 -9.75195 383.339 -45.8306 348.38
lowerback 6.35465 2.77525 -9.02124
upperback -1.50008 2.8669 -1.25613
thorax -5.54316 1.67651 3.40991
lowerneck -9.76243 -10.1168 -22.7057
upperneck 9.40053 -15.1718 30.3081
head 9.09177 -6.67476 12.827
rclavicle -5.80451e-014 6.83819e-014
rhumerus -14.684 -26.5448 -12.5852
rradius 26.5916
rwrist 41.9589
rhand -26.5801 -12.1139
rfingers 7.12502
rthumb -0.0145774 -42.0937
lclavicle -5.80451e-014 6.83819e-014
lhumerus -21.1339 -16.1957 4.38558
lradius 24.6747
lwrist 0.436131
lhand -28.6685 23.3384
lfingers 7.12502
lthumb -2.03153 53.3085
rfemur -42.8945 -198.161 0.432791
rtibia 16.3959
rfoot -34.3393 -69.0445
rtoes -46.9253
lfemur -51.9901 -2.4368 -12.2058
ltibia 59.3754
lfoot -21.9201 6.89965
ltoes -9.00563
302
root 8.64256 17.5917 -9.76066 383.811 -47.0146 347.543
lowerback 6.252 2.59775 -8.78978
upperback -1.49763 2.6651 -1.20018
thorax -5.44563 1.56783 3.37014
lowerneck -9.97821 -10.2095 -22.5485
upperneck 9.88717 -15.4062 30.2009
head 9.33636 -6.76139 12.728
rclavicle 4.17448e-014 -7.95139e-015
rhumerus -15.3981 -26.7059 -12.6229
rradius 26.5337
rwrist 42.3757
rhand -26.6886 -11.8392
rfingers 7.12502
rthumb -0.119295 -41.8189
lclavicle 4.17448e-014 -7.95139e-015
lhumerus -20.758 -15.9878 5.35943
lradius 24.332
lwrist 0.278963
lhand -28.4615 23.2738
lfingers 7.12502
lthumb -1.83162 53.2457
rfemur -43.1379 -199.217 0.786405
rtibia 16.0557
rfoot -40.175 -70.7569
rtoes -47.1131
lfemur -51.6684 -1.74669 -11.9777
ltibia 59.3514
lfoot -21.9766 7.49187
ltoes -8.92066
303
root 8.69394 17.6094 -9.76726 384.274 -48.3252 346.765
lowerback 6.05596 2.42311 -8.7276
upperback -1.5296 2.46063 -1.14152
thorax -5.34111 1.46394 3.42886
lowerneck -9.98442 -10.1587 -22.401
upperneck 10.2368 -15.4436 30.1422
head 9.44098 -6.77339 12.6908
rclavicle -1.78906e-014 1.11319e-014
rhumerus -16.1424 -26.2129 -12.6759
rradius 26.7026
rwrist 41.635
rhand -26.5491 -12.2446
rfingers 7.12502
rthumb 0.015397 -42.2243
lclavicle -1.78906e-014 1.11319e-014
lhumerus -20.6991 -16.304 6.27717
lradius 24.2096
lwrist 0.110506
lhand -28.0635 23.2469
lfingers 7.12502
lthumb -1.44727 53.2217
rfemur -43.2323 -200.39 0.950269
rtibia 15.6122
rfoot -46.2955 -72.0238
rtoes -47.5155
lfemur -51.3171 -0.982573 -11.9045
ltibia 59.3065
lfoot -22.0313 8.21466
ltoes -8.81532
304
root 8.74746 17.631 -9.76855 384.836 -49.7382 345.987
lowerback 5.8747 2.17766 -8.74024
upperback -1.62503 2.15753 -0.963546
thorax -5.30787 1.32089 3.66247
lowerneck -10.2942 -10.1713 -22.6483
upperneck 10.8723 -15.5176 30.0785
head 9.74938 -6.79099 12.7397
rclavicle -4.81059e-014 -3.18055e-015
rhumerus -16.4771 -25.7091 -12.6486
rradius 26.7257
rwrist 41.4331
rhand -26.5484 -12.3081
rfingers 7.12502
rthumb 0.0160928 -42.2879
lclavicle -4.81059e-014 -3.18055e-015
lhumerus -20.8447 -15.9756 7.18928
lradius 23.7067
lwrist -0.491606
lhand -27.7138 22.5166
lfingers 7.12502
lthumb -1.10949 52.4935
rfemur -43.2724 -201.987 0.837109
rtibia 15.2162
rfoot -53.9654 -72.9473
rtoes -47.7151
lfemur -51.0108 -0.0912397 -11.9115
ltibia 59.1972
lfoot -22.0621 8.88833
ltoes -8.47594
305
root 8.79763 17.6573 -9.76727 385.484 -51.2819 345.112
lowerback 5.45182 2.01686 -8.68135
upperback -1.62525 1.99358 -0.951044
thorax -5.04328 1.22891 3.67438
lowerneck -10.1486 -10.1289 -22.6267
upperneck 11.0411 -15.5721 30.1751
head 9.80404 -6.82929 12.7879
rclavicle -3.37934e-014 -4.77083e-015
rhumerus -17.2011 -25.851 -12.5
rradius 26.6838
rwrist 42.0353
rhand -26.3915 -12.0923
rfingers 7.12502
rthumb 0.167593 -42.072
lclavicle -3.37934e-014 -4.77083e-015
lhumerus -20.5345 -15.1248 7.70711
lradius 23.1633
lwrist -1.3355
lhand -27.3592 22.3352
lfingers 7.12502
lthumb -0.767041 52.3136
rfemur -43.3094 -203.543 0.750188
rtibia 15.0105
rfoot -61.62 -73.3962
rtoes -47.6295
lfemur -50.5766 0.889028 -11.9388
ltibia 59.0126
lfoot -22.1755 9.59151
ltoes -8.28369
306
root 8.85159 17.6872 -9.76721 386.234 -52.76 344.119
lowerback 5.14447 1.80812 -8.41034
upperback -1.68228 1.75891 -1.04648
thorax -4.88395 1.09884 3.45566
lowerneck -10.1034 -10.0856 -22.3301
upperneck 11.2399 -15.6496 30.1992
head 9.86043 -6.86042 12.7406
rclavicle -3.69739e-014 -4.77083e-015
rhumerus -18.063 -26.0608 -12.34
rradius 26.6153
rwrist 42.6314
rhand -26.2106 -11.6149
rfingers 7.12502
rthumb 0.342368 -41.5943
lclavicle -3.69739e-014 -4.77083e-015
lhumerus -20.5559 -14.9305 7.97656
lradius 23.0419
lwrist -1.73674
lhand -27.1743 22.132
lfingers 7.12502
lthumb -0.588447 52.1109
rfemur -43.3082 -204.895 0.971621
rtibia 14.985
rfoot -67.0893 -73.6467
rtoes -47.5265
lfemur -50.099 1.88864 -11.9043
ltibia 58.7085
lfoot -22.2472 10.1841
ltoes -8.10324
